<?xml version="1.0" encoding="utf-8"?>
<!-- Generator: Adobe Illustrator 22.0.0, SVG Export Plug-In . SVG Version: 6.00 Build 0)  -->
<svg version="1.1" id="Layer_1" xmlns="http://www.w3.org/2000/svg" xmlns:xlink="http://www.w3.org/1999/xlink" x="0px" y="0px"
	 viewBox="0 0 1557.2 338.5" style="enable-background:new 0 0 1557.2 338.5;" xml:space="preserve">
<style type="text/css">
	.st0{fill:#F6F6F6;}
	.st1{fill:#70B6D4;fill-opacity:0.7;}
	.st2{fill:#141414;}
	.st3{fill:none;stroke:#8E847D;stroke-miterlimit:10;}
	.st4{fill:#3F80B9;}
	.st5{fill:#E94336;}
	.st6{fill:#F5BD0F;}
	.st7{fill:#319F4F;}
	.st8{fill:#DFE7E1;}
	.st9{fill:#869695;}
	.st10{fill:none;stroke:#869695;stroke-width:0.5;stroke-miterlimit:10;}
	.st11{fill:#D31256;}
	.st12{fill:#FE731D;}
	.st13{fill:#1A8C2F;}
	.st14{fill:#2F4FA1;}
	.st15{fill:none;stroke:#869695;stroke-miterlimit:10;}
	.st16{fill:#A4BFB3;}
	.st17{fill:none;stroke:#141414;stroke-width:3;stroke-miterlimit:10;}
	.st18{fill:none;stroke:#141414;stroke-width:0.75;stroke-miterlimit:10;}
	.st19{fill:#FFCC00;}
	.st20{fill:#F1E2F0;}
	.st21{fill:#ED97B6;}
	.st22{fill:#74B7D6;}
	.st23{fill:none;stroke:#FFFFFF;stroke-width:0.35;stroke-miterlimit:10;}
	.st24{fill:#FFFFFF;}
	.st25{fill:none;stroke:#000000;stroke-width:0.25;stroke-miterlimit:10;}
	.st26{opacity:0.7;}
	.st27{fill:#70B6D4;}
	.st28{opacity:0.15;fill:#70B6D4;}
	.st29{fill:none;stroke:#000000;stroke-miterlimit:10;}
	.st30{fill:none;stroke:#141414;stroke-miterlimit:10;}
	.st31{fill:#2A809E;}
	.st32{fill:url(#SVGID_11_);}
	.st33{fill:url(#SVGID_12_);}
	.st34{fill:url(#SVGID_13_);}
	.st35{fill:url(#SVGID_14_);}
	.st36{fill:url(#SVGID_15_);}
	.st37{fill:url(#SVGID_16_);}
	.st38{fill:#FFFFFF;stroke:#000000;stroke-width:0.25;stroke-miterlimit:10;}
	.st39{fill:url(#SVGID_29_);}
	.st40{fill:url(#SVGID_30_);}
	.st41{fill:url(#SVGID_31_);}
	.st42{fill:url(#SVGID_32_);}
	.st43{fill:url(#SVGID_33_);}
	.st44{fill:url(#SVGID_34_);}
	.st45{fill:url(#SVGID_35_);}
	.st46{fill:url(#SVGID_36_);}
	.st47{fill:url(#SVGID_37_);}
	.st48{fill:url(#SVGID_38_);}
	.st49{fill:url(#SVGID_39_);}
	.st50{fill:url(#SVGID_40_);}
	.st51{fill:url(#SVGID_41_);}
	.st52{fill:url(#SVGID_42_);}
	.st53{fill:url(#SVGID_43_);}
	.st54{fill:url(#SVGID_44_);}
	.st55{fill:url(#SVGID_45_);}
	.st56{fill:url(#SVGID_46_);}
	.st57{fill:url(#SVGID_47_);}
	.st58{fill:url(#SVGID_48_);}
	.st59{fill:url(#SVGID_49_);}
	.st60{fill:url(#SVGID_50_);}
	.st61{fill:url(#SVGID_51_);}
	.st62{fill:url(#SVGID_52_);}
	.st63{opacity:0.7;fill:url(#SVGID_55_);}
	.st64{opacity:0.7;fill:url(#SVGID_56_);}
	.st65{fill:#2950A1;}
	.st66{fill:#D21553;}
	.st67{fill:#F299B6;}
	.st68{fill:#F8F6D6;}
	.st69{fill:#F2FAE3;}
	.st70{fill:#F79B24;}
	.st71{fill:#F9E594;}
	.st72{fill:#561D0A;}
	.st73{fill:#D83312;}
	.st74{fill:#DD6910;}
	.st75{fill:#E2AD9F;}
	.st76{fill:#F9E7C0;}
	.st77{fill:#77312F;}
	.st78{fill:#F8966F;}
	.st79{fill:#F7A466;}
	.st80{fill:#E2762C;}
	.st81{opacity:0.4;}
	.st82{fill:#188D37;}
	.st83{fill:url(#SVGID_65_);}
	.st84{fill:url(#SVGID_66_);}
</style>
<g>
	<linearGradient id="SVGID_2_" gradientUnits="userSpaceOnUse" x1="110.6649" y1="204.4405" x2="411.2788" y2="88.4189">
		<stop  offset="0" style="stop-color:#FFCC00"/>
		<stop  offset="0.2418" style="stop-color:#FFC905"/>
		<stop  offset="0.4452" style="stop-color:#FFBE0A"/>
		<stop  offset="0.6347" style="stop-color:#FFAD0F"/>
		<stop  offset="0.8157" style="stop-color:#FF9513"/>
		<stop  offset="0.9893" style="stop-color:#FE751C"/>
		<stop  offset="1" style="stop-color:#FE731D"/>
	</linearGradient>
	<path style="fill:url(#SVGID_2_);" d="M420.9,19.5c-4.1-2.3-8.4-4.3-12.9-6c-11.5-4.4-24-6.8-37-6.8c-18.2,0-35.4,4.7-50.2,13
		c-1,0.6-2.1,1.2-3.1,1.8c-0.5,0.3-0.9,0.6-1.4,0.9c-1.8,1.1-3.6,2.3-5.3,3.5c-0.5,0.4-1,0.8-1.6,1.2c-0.5,0.3-1,0.8-1.5,1.2
		c-0.4,0.3-0.9,0.6-1.3,1c-0.6,0.5-1.2,0.9-1.7,1.4c0,0-0.9,0.7-2.3,1.9c-0.2,0.1-0.4,0.3-0.5,0.5c-6.1,5.7-13.4,14-20.1,25.6
		c-0.1,0.1-0.2,0.3-0.3,0.5c-0.1,0.1-0.1,0.2-0.2,0.3c-2,3.6-4.7,8.4-7.9,14c-7.2,12.6-16.9,28.8-26.6,43.6l-17.5-39.5
		c-16-41.2-56-70.4-102.8-70.4c-10.2,0-20,1.4-29.3,4C50.7,23.8,16.4,66.6,16.4,117.3c0,18.6,4.6,36.2,12.8,51.5
		c16.4,31,47.2,53.2,83.4,57.8c0,0,0.1,0,0.1,0c4.6,0.6,9.2,0.9,14,0.9c16.1,0,31.3-3.4,45.1-9.6c20.4-6.1,39.5-15.2,56.7-26.9
		c0,0,0,0,0,0c3.2-2.2,6.4-4.4,9.4-6.8l0.3,0.7l43.3,92.9c0.9,2.3,2,4.6,3.2,6.8l0.1,0.1c0.7,1.3,1.4,2.5,2.2,3.7
		c5,7.5,11.7,13.8,19.7,18.2c8,4.4,17.1,6.9,26.8,6.9c20.1,0,37.6-10.7,47.5-26.6l0.5-0.9l73-115.2c2.7-3.6,5.1-7.5,7.3-11.5
		c8-14.7,12.5-31.5,12.5-49.3C474.4,71,452.8,37.1,420.9,19.5z M217.7,153.5c-18.7,14.6-40.5,25.4-64.3,31.3c0,0,0,0,0,0
		c-10.5,2.6-21.4,4.3-32.6,4.8h-0.1c-37.3-3-66.5-34.2-66.5-72.3c0-31,19.4-57.4,46.7-67.8c8-3.1,16.7-4.7,25.8-4.7
		c28.1,0,52.5,16,64.5,39.5h0l2.3,4.9l0.1,0.1l16.3,34.7l12,25.6C220.4,150.9,219.1,152.2,217.7,153.5z M425.4,142.5l-30.5,52.1
		l-0.2,0.3L384,212.6c0.1,0,0.2,0,0.3,0l-6.6,11.3c-0.1-0.1-0.2-0.2-0.3-0.3l-22.1,36.8l0,0.1c-0.9,1.9-1.9,3.8-3.2,5.4l-0.1,0.1h0
		c-4.3,5.4-10.9,8.8-18.3,8.8c-9.6,0-17.9-5.7-21.5-14l0.1-0.1l-0.7-1.5l-18.1-39.7l-18.1-39.7l-9.5-20.8l1.2-2
		c0.2-0.3,0.4-0.7,0.6-1l5.4-9c0.1-0.1,0.1-0.3,0.2-0.4L312,81.9l5-8.4l3-5c1.1-1.5,2.3-2.9,3.4-4.1c2.1-2.4,4.1-4.3,6-5.9
		c1.4-1.2,2.7-2.2,3.8-3c10.3-6.9,22.7-10.9,36-10.9c7.2,0,14.1,1.2,20.6,3.3c3.5,1.2,6.8,2.6,10,4.3c20.5,10.9,34.4,32.5,34.4,57.4
		C434.3,121.6,431,132.9,425.4,142.5z"/>
	<g>
		<g>
			<polygon class="st12" points="643.6,274.2 579.6,110.6 548.1,110.6 631,312.3 656.5,312.3 739.1,110.6 707.1,110.6 			"/>
			<path class="st12" d="M786.4,7.9c-6.2,0-11.5,2.4-15.9,7.1c-4.4,4.7-6.5,10.2-6.5,16.6c0,6.6,2.2,12.3,6.5,16.9
				c4.4,4.7,9.7,7.1,15.9,7.1c6,0,11.4-2.4,16.1-7.2c4.6-4.8,7-10.4,7-16.8c0-6.3-2.3-11.8-7-16.6C797.9,10.3,792.5,7.9,786.4,7.9z"
				/>
			<rect x="772.1" y="110.6" class="st12" width="29.2" height="201.7"/>
			<path class="st12" d="M1094.5,239.2v-101h37.9v-27.9h-37.9V54.9h-28.6v55.4h-38.3v27.9h38.3v102.3c0,22.5,6.1,40.2,18.4,52.9
				c3.1,3.3,6.5,6.1,10.2,8.6c10.5,7,23.1,10.5,37.9,10.5h0v-27.7c-10.5-0.7-19.2-4.7-26.2-12
				C1098.4,264.6,1094.5,253.4,1094.5,239.2z"/>
			<path class="st12" d="M1179.3,7.9c-6.2,0-11.5,2.4-15.9,7.1c-4.4,4.7-6.6,10.2-6.6,16.6c0,6.6,2.2,12.3,6.6,16.9
				c4.4,4.7,9.6,7.1,15.9,7.1c6.1,0,11.4-2.4,16.1-7.2c4.7-4.8,7-10.4,7-16.8c0-6.3-2.3-11.8-7-16.6
				C1190.7,10.3,1185.4,7.9,1179.3,7.9z"/>
			<rect x="1165" y="110.8" class="st12" width="29.2" height="201.7"/>
			<path class="st12" d="M1329.6,14.8c-13.8,0.4-25.8,4-35.8,10.8c-3.6,2.4-7,5.3-10.1,8.6c-12.3,13-18.5,30.8-18.5,53.5v22.9h-38.5
				v28.2h38.5v173.5h28.8V144.6v-5.8h38.3v-28.2H1294V88.5c0-14.2,4-25.4,11.9-33.7c7.1-7.4,15.9-11.5,26.4-12.2v-0.2V14.8h-0.1
				C1331.4,14.8,1330.5,14.8,1329.6,14.8z"/>
			<path class="st12" d="M991.2,136.5c-17.1-17.7-38.2-26.6-63.2-26.6c-26.4,0-48.8,9.7-67.1,28.9c-18.4,19.3-27.5,42.9-27.5,70.8
				c0,14.4,2.5,27.9,7.5,40.6c5,12.7,11.7,23.5,20.3,32.4c8.5,9,18.6,16.1,30.3,21.2c11.7,5.2,24,7.8,36.9,7.8
				c18.8,0,35.7-3.9,50.5-11.7c14.8-7.8,25.8-18.4,32.9-31.7l-22-14.8c-5.4,9.8-13.5,17.6-24.2,23.4c-10.8,5.7-22.9,8.5-36.4,8.5
				c-19.3,0-35.3-6.5-47.9-19.5c-10-10.3-16.4-23.2-19.2-38.8c0-0.1,0-0.2-0.1-0.3c-0.6-2.4-1-4.7-1.3-7h155.1l0.2-2.3l0,0l0,0
				l0.1-0.8l0,0l0.2-4h0c0.4-4.5,0.6-8,0.6-10.6C1016.7,176,1008.2,154.2,991.2,136.5z M860.6,196.9c1.4-9.8,4.1-15.9,4.1-15.9
				s0,0,0,0c3.9-12.4,10.6-22.8,19.9-31.1c11.8-10.4,25.8-15.7,42.1-15.7c16.6,0,30.6,5.3,42.2,16c8,7.5,13.6,16.3,16.5,26.6
				c0,0,0.1,0.1,0.1,0.1c0.1,0.4,0.2,0.7,0.3,1.1c2.3,7.7,3.5,13.8,4.1,18.7H860.6z"/>
			<polygon class="st12" points="1512.8,110.5 1455.8,200.5 1398.9,110.5 1364.5,110.5 1438.6,227.8 1441.4,232.5 1441.4,232.5 
				1441.4,312.3 1470.2,312.3 1470.2,232.5 1473.1,227.7 1547.2,110.5 			"/>
		</g>
	</g>
	<linearGradient id="SVGID_4_" gradientUnits="userSpaceOnUse" x1="122.5797" y1="47.0155" x2="276.3382" y2="145.4775">
		<stop  offset="0" style="stop-color:#FFCC00"/>
		<stop  offset="0.139" style="stop-color:#FFBF09"/>
		<stop  offset="1" style="stop-color:#FE731D"/>
	</linearGradient>
	<path style="fill:url(#SVGID_4_);" d="M265.9,158.8l-9.1,35.8L238,184.2l-16.2-34.7l-12-25.6l-16.3-34.7l-0.1-0.1l-2.3-4.9h0
		c-12-23.4-36.4-39.5-64.5-39.5c-9.1,0-17.8,1.7-25.8,4.7L97.3,11c9.3-2.6,19.2-4,29.3-4c46.8,0,86.8,29.2,102.8,70.4l17.5,39.5
		L265.9,158.8z"/>
	<path class="st12" d="M474.4,110.1c0,17.9-4.5,34.7-12.5,49.3c-2.2,4-4.6,7.8-7.3,11.5l-73,115.2l-0.5,0.9
		c-9.8,15.9-27.4,26.6-47.5,26.6c-9.7,0-18.9-2.5-26.8-6.9c-7.9-4.4-14.7-10.7-19.7-18.2c-0.8-1.2-1.5-2.5-2.2-3.7l-0.1-0.1
		c-1.2-2.2-2.3-4.5-3.2-6.8l-43.3-92.9l-0.3-0.7c0,0,21.9-16.8,29-27.3l-1.2,2l9.5,20.8l18.1,39.7l18.1,39.7l0.7,1.5l-0.1,0.1
		c3.7,8.3,11.9,14,21.5,14c7.4,0,14-3.4,18.3-8.8h0l0.1-0.1c1.3-1.6,2.4-3.5,3.2-5.4l0-0.1l22.1-36.8c0.1,0.1,0.2,0.2,0.3,0.3
		l6.6-11.3c-0.1,0-0.2,0-0.3,0l10.6-17.7l0.2-0.3l30.5-52.1c5.6-9.6,8.9-20.9,8.9-32.9c0-24.8-13.9-46.4-34.4-57.4l21.1-32.8
		C452.8,37.1,474.4,71,474.4,110.1z"/>
</g>
</svg>
